<?xml version="1.0" standalone="no"?>
<!DOCTYPE svg PUBLIC "-//W3C//DTD SVG 20010904//EN"
 "http://www.w3.org/TR/2001/REC-SVG-20010904/DTD/svg10.dtd">
<svg version="1.0" xmlns="http://www.w3.org/2000/svg"
 width="16px" height="16px" viewBox="0 0 180.000000 180.000000"
 preserveAspectRatio="xMidYMid meet">

<g transform="translate(0.000000,180.000000) scale(0.100000,-0.100000)"
fill="#a77eff" stroke="none">
<path d="M0 900 l0 -900 900 0 900 0 0 900 0 900 -900 0 -900 0 0 -900z m990
664 c31 -49 24 -89 -45 -234 -85 -182 -102 -295 -66 -435 11 -38 17 -73 15
-76 -2 -3 -25 -9 -51 -13 -26 -3 -59 -9 -73 -12 -22 -4 -27 0 -43 40 -26 63
-88 158 -143 216 l-45 48 15 90 c8 50 18 97 23 105 11 18 302 280 328 295 37
21 62 14 85 -24z m189 -206 l95 -121 7 -101 c11 -155 28 -206 115 -337 24 -37
44 -75 44 -86 0 -16 -95 -183 -105 -183 -2 0 -17 26 -35 57 -67 118 -174 203
-280 221 -44 7 -46 9 -64 62 -24 73 -31 176 -17 252 7 35 37 115 67 180 30 64
57 130 60 147 4 17 9 31 13 31 3 -1 48 -55 100 -122z m-602 -400 c142 -187
174 -369 97 -555 -14 -34 -31 -67 -38 -72 -16 -13 -261 231 -271 269 -3 14 -1
39 5 55 24 66 155 355 161 355 4 0 25 -24 46 -52z m495 -236 c59 -26 109 -71
157 -143 57 -86 64 -117 40 -186 -10 -31 -19 -65 -19 -76 0 -37 -31 -85 -67
-102 -34 -16 -39 -16 -136 10 -56 15 -115 31 -132 36 -16 6 -74 13 -128 16
-54 3 -96 9 -95 12 2 3 17 35 35 71 41 86 56 162 51 274 l-3 91 50 12 c69 17
192 10 247 -15z"/>
</g>
</svg>
